<?xml version="1.0" standalone="no"?>
<!DOCTYPE svg PUBLIC "-//W3C//DTD SVG 20010904//EN"
 "http://www.w3.org/TR/2001/REC-SVG-20010904/DTD/svg10.dtd">
<svg version="1.0" xmlns="http://www.w3.org/2000/svg"
 width="16.000000pt" height="16.000000pt" viewBox="0 0 16.000000 16.000000"
 preserveAspectRatio="xMidYMid meet">

<g transform="translate(0.000000,16.000000) scale(0.100000,-0.100000)"
fill="#000000" stroke="none">
<path d="M60 125 c-10 -13 -9 -19 6 -37 11 -12 13 -18 7 -14 -23 13 -53 -13
-53 -44 0 -30 1 -30 56 -30 53 0 55 1 48 23 -7 23 -29 54 -53 73 -12 10 -11
13 7 18 12 4 20 12 17 17 -9 13 -21 11 -35 -6z m34 -81 c3 -8 2 -12 -4 -9 -6
3 -10 10 -10 16 0 14 7 11 14 -7z"/>
</g>
</svg>
